<mxfile host="app.diagrams.net" modified="2022-12-31T10:36:32.116Z" agent="5.0 (X11; Linux x86_64) AppleWebKit/537.36 (KHTML, like Gecko) Chrome/108.0.0.0 Safari/537.36" version="20.7.4" etag="gl_r2KUPW0WK8SY-QIr3" type="github">
  <diagram id="dqbPoY4tXgYottKjxtJa" name="Page-1">
    <mxGraphModel dx="819" dy="458" grid="1" gridSize="10" guides="1" tooltips="1" connect="1" arrows="1" fold="1" page="1" pageScale="1" pageWidth="850" pageHeight="1100" math="0" shadow="0">
      <root>
        <mxCell id="0" />
        <mxCell id="1" parent="0" />
        <mxCell id="jS2enx0RO5ZcbMTMXtOT-6" value="" style="edgeStyle=orthogonalEdgeStyle;rounded=0;orthogonalLoop=1;jettySize=auto;html=1;" edge="1" parent="1" source="tw3v8FDjGSMDrPSG7PHw-2" target="tw3v8FDjGSMDrPSG7PHw-5">
          <mxGeometry relative="1" as="geometry" />
        </mxCell>
        <mxCell id="tw3v8FDjGSMDrPSG7PHw-2" value="AWS Cloud" style="points=[[0,0],[0.25,0],[0.5,0],[0.75,0],[1,0],[1,0.25],[1,0.5],[1,0.75],[1,1],[0.75,1],[0.5,1],[0.25,1],[0,1],[0,0.75],[0,0.5],[0,0.25]];outlineConnect=0;gradientColor=none;html=1;whiteSpace=wrap;fontSize=12;fontStyle=0;container=1;pointerEvents=0;collapsible=0;recursiveResize=0;shape=mxgraph.aws4.group;grIcon=mxgraph.aws4.group_aws_cloud_alt;strokeColor=#232F3E;fillColor=none;verticalAlign=top;align=left;spacingLeft=30;fontColor=#232F3E;dashed=0;" parent="1" vertex="1">
          <mxGeometry x="105" y="130" width="640" height="670" as="geometry" />
        </mxCell>
        <mxCell id="tw3v8FDjGSMDrPSG7PHw-3" value="Region" style="points=[[0,0],[0.25,0],[0.5,0],[0.75,0],[1,0],[1,0.25],[1,0.5],[1,0.75],[1,1],[0.75,1],[0.5,1],[0.25,1],[0,1],[0,0.75],[0,0.5],[0,0.25]];outlineConnect=0;gradientColor=none;html=1;whiteSpace=wrap;fontSize=12;fontStyle=0;container=1;pointerEvents=0;collapsible=0;recursiveResize=0;shape=mxgraph.aws4.group;grIcon=mxgraph.aws4.group_region;strokeColor=#147EBA;fillColor=none;verticalAlign=top;align=left;spacingLeft=30;fontColor=#147EBA;dashed=1;" parent="tw3v8FDjGSMDrPSG7PHw-2" vertex="1">
          <mxGeometry x="30" y="20" width="590" height="640" as="geometry" />
        </mxCell>
        <mxCell id="tw3v8FDjGSMDrPSG7PHw-4" value="VPC" style="points=[[0,0],[0.25,0],[0.5,0],[0.75,0],[1,0],[1,0.25],[1,0.5],[1,0.75],[1,1],[0.75,1],[0.5,1],[0.25,1],[0,1],[0,0.75],[0,0.5],[0,0.25]];outlineConnect=0;gradientColor=none;html=1;whiteSpace=wrap;fontSize=12;fontStyle=0;container=1;pointerEvents=0;collapsible=0;recursiveResize=0;shape=mxgraph.aws4.group;grIcon=mxgraph.aws4.group_vpc;strokeColor=#248814;fillColor=none;verticalAlign=top;align=left;spacingLeft=30;fontColor=#AAB7B8;dashed=0;" parent="tw3v8FDjGSMDrPSG7PHw-3" vertex="1">
          <mxGeometry x="24" y="110" width="546" height="510" as="geometry" />
        </mxCell>
        <mxCell id="tw3v8FDjGSMDrPSG7PHw-31" value="Private subnet" style="points=[[0,0],[0.25,0],[0.5,0],[0.75,0],[1,0],[1,0.25],[1,0.5],[1,0.75],[1,1],[0.75,1],[0.5,1],[0.25,1],[0,1],[0,0.75],[0,0.5],[0,0.25]];outlineConnect=0;gradientColor=none;html=1;whiteSpace=wrap;fontSize=12;fontStyle=0;container=1;pointerEvents=0;collapsible=0;recursiveResize=0;shape=mxgraph.aws4.group;grIcon=mxgraph.aws4.group_security_group;grStroke=0;strokeColor=#147EBA;fillColor=#E6F2F8;verticalAlign=top;align=left;spacingLeft=30;fontColor=#147EBA;dashed=0;" parent="tw3v8FDjGSMDrPSG7PHw-4" vertex="1">
          <mxGeometry x="345" y="234" width="175" height="230" as="geometry" />
        </mxCell>
        <mxCell id="tw3v8FDjGSMDrPSG7PHw-32" value="" style="group" parent="tw3v8FDjGSMDrPSG7PHw-31" vertex="1" connectable="0">
          <mxGeometry x="10" y="36" width="160" height="184" as="geometry" />
        </mxCell>
        <mxCell id="tw3v8FDjGSMDrPSG7PHw-33" value="" style="sketch=0;points=[[0,0,0],[0.25,0,0],[0.5,0,0],[0.75,0,0],[1,0,0],[0,1,0],[0.25,1,0],[0.5,1,0],[0.75,1,0],[1,1,0],[0,0.25,0],[0,0.5,0],[0,0.75,0],[1,0.25,0],[1,0.5,0],[1,0.75,0]];outlineConnect=0;fontColor=#232F3E;gradientColor=#F78E04;gradientDirection=north;fillColor=#D05C17;strokeColor=#ffffff;dashed=0;verticalLabelPosition=bottom;verticalAlign=top;align=center;html=1;fontSize=12;fontStyle=0;aspect=fixed;shape=mxgraph.aws4.resourceIcon;resIcon=mxgraph.aws4.eks_cloud;" parent="tw3v8FDjGSMDrPSG7PHw-32" vertex="1">
          <mxGeometry width="36.74070610240823" height="36.74070610240823" as="geometry" />
        </mxCell>
        <mxCell id="tw3v8FDjGSMDrPSG7PHw-34" value="EKS Cluster" style="fillColor=none;strokeColor=#5A6C86;dashed=1;verticalAlign=top;fontStyle=0;fontColor=#5A6C86;fontSize=9;" parent="tw3v8FDjGSMDrPSG7PHw-32" vertex="1">
          <mxGeometry width="160" height="184" as="geometry" />
        </mxCell>
        <mxCell id="tw3v8FDjGSMDrPSG7PHw-35" value="&lt;font style=&quot;&quot;&gt;&lt;font size=&quot;1&quot;&gt;Worker Node&lt;/font&gt;&lt;br&gt;App PODs&lt;br&gt;&lt;/font&gt;" style="points=[[0,0],[0.25,0],[0.5,0],[0.75,0],[1,0],[1,0.25],[1,0.5],[1,0.75],[1,1],[0.75,1],[0.5,1],[0.25,1],[0,1],[0,0.75],[0,0.5],[0,0.25]];outlineConnect=0;gradientColor=none;html=1;whiteSpace=wrap;fontSize=12;fontStyle=0;container=1;pointerEvents=0;collapsible=0;recursiveResize=0;shape=mxgraph.aws4.group;grIcon=mxgraph.aws4.group_ec2_instance_contents;strokeColor=#D86613;fillColor=none;verticalAlign=top;align=left;spacingLeft=30;fontColor=#D86613;dashed=0;" parent="tw3v8FDjGSMDrPSG7PHw-32" vertex="1">
          <mxGeometry x="6.048109965635739" y="50" width="130.8591065292096" height="60" as="geometry" />
        </mxCell>
        <mxCell id="tw3v8FDjGSMDrPSG7PHw-29" value="Availability Zone" style="fillColor=none;strokeColor=#147EBA;dashed=1;verticalAlign=top;fontStyle=0;fontColor=#147EBA;" parent="tw3v8FDjGSMDrPSG7PHw-4" vertex="1">
          <mxGeometry x="331" y="70" width="200" height="404" as="geometry" />
        </mxCell>
        <mxCell id="tw3v8FDjGSMDrPSG7PHw-9" value="Availability Zone" style="fillColor=none;strokeColor=#147EBA;dashed=1;verticalAlign=top;fontStyle=0;fontColor=#147EBA;" parent="tw3v8FDjGSMDrPSG7PHw-4" vertex="1">
          <mxGeometry x="10" y="70" width="200" height="430" as="geometry" />
        </mxCell>
        <mxCell id="tw3v8FDjGSMDrPSG7PHw-10" value="Public subnet" style="points=[[0,0],[0.25,0],[0.5,0],[0.75,0],[1,0],[1,0.25],[1,0.5],[1,0.75],[1,1],[0.75,1],[0.5,1],[0.25,1],[0,1],[0,0.75],[0,0.5],[0,0.25]];outlineConnect=0;gradientColor=none;html=1;whiteSpace=wrap;fontSize=12;fontStyle=0;container=1;pointerEvents=0;collapsible=0;recursiveResize=0;shape=mxgraph.aws4.group;grIcon=mxgraph.aws4.group_security_group;grStroke=0;strokeColor=#248814;fillColor=#E9F3E6;verticalAlign=top;align=left;spacingLeft=30;fontColor=#248814;dashed=0;" parent="tw3v8FDjGSMDrPSG7PHw-4" vertex="1">
          <mxGeometry x="21" y="100" width="179" height="124" as="geometry" />
        </mxCell>
        <mxCell id="tw3v8FDjGSMDrPSG7PHw-11" value="Private subnet" style="points=[[0,0],[0.25,0],[0.5,0],[0.75,0],[1,0],[1,0.25],[1,0.5],[1,0.75],[1,1],[0.75,1],[0.5,1],[0.25,1],[0,1],[0,0.75],[0,0.5],[0,0.25]];outlineConnect=0;gradientColor=none;html=1;whiteSpace=wrap;fontSize=12;fontStyle=0;container=1;pointerEvents=0;collapsible=0;recursiveResize=0;shape=mxgraph.aws4.group;grIcon=mxgraph.aws4.group_security_group;grStroke=0;strokeColor=#147EBA;fillColor=#E6F2F8;verticalAlign=top;align=left;spacingLeft=30;fontColor=#147EBA;dashed=0;" parent="tw3v8FDjGSMDrPSG7PHw-4" vertex="1">
          <mxGeometry x="21" y="234" width="159" height="230" as="geometry" />
        </mxCell>
        <mxCell id="tw3v8FDjGSMDrPSG7PHw-24" value="" style="group" parent="tw3v8FDjGSMDrPSG7PHw-11" vertex="1" connectable="0">
          <mxGeometry x="4.5" y="36" width="145.5" height="184" as="geometry" />
        </mxCell>
        <mxCell id="tw3v8FDjGSMDrPSG7PHw-14" value="" style="sketch=0;points=[[0,0,0],[0.25,0,0],[0.5,0,0],[0.75,0,0],[1,0,0],[0,1,0],[0.25,1,0],[0.5,1,0],[0.75,1,0],[1,1,0],[0,0.25,0],[0,0.5,0],[0,0.75,0],[1,0.25,0],[1,0.5,0],[1,0.75,0]];outlineConnect=0;fontColor=#232F3E;gradientColor=#F78E04;gradientDirection=north;fillColor=#D05C17;strokeColor=#ffffff;dashed=0;verticalLabelPosition=bottom;verticalAlign=top;align=center;html=1;fontSize=12;fontStyle=0;aspect=fixed;shape=mxgraph.aws4.resourceIcon;resIcon=mxgraph.aws4.eks_cloud;" parent="tw3v8FDjGSMDrPSG7PHw-24" vertex="1">
          <mxGeometry width="40.292307692307695" height="40.292307692307695" as="geometry" />
        </mxCell>
        <mxCell id="tw3v8FDjGSMDrPSG7PHw-22" value="EKS Cluster" style="fillColor=none;strokeColor=#5A6C86;dashed=1;verticalAlign=top;fontStyle=0;fontColor=#5A6C86;fontSize=9;" parent="tw3v8FDjGSMDrPSG7PHw-24" vertex="1">
          <mxGeometry width="145.5" height="184" as="geometry" />
        </mxCell>
        <mxCell id="tw3v8FDjGSMDrPSG7PHw-28" value="&lt;font style=&quot;&quot;&gt;&lt;font size=&quot;1&quot;&gt;Worker Node&lt;/font&gt;&lt;br&gt;App PODs&lt;br&gt;&lt;/font&gt;" style="points=[[0,0],[0.25,0],[0.5,0],[0.75,0],[1,0],[1,0.25],[1,0.5],[1,0.75],[1,1],[0.75,1],[0.5,1],[0.25,1],[0,1],[0,0.75],[0,0.5],[0,0.25]];outlineConnect=0;gradientColor=none;html=1;whiteSpace=wrap;fontSize=12;fontStyle=0;container=1;pointerEvents=0;collapsible=0;recursiveResize=0;shape=mxgraph.aws4.group;grIcon=mxgraph.aws4.group_ec2_instance_contents;strokeColor=#D86613;fillColor=none;verticalAlign=top;align=left;spacingLeft=30;fontColor=#D86613;dashed=0;" parent="tw3v8FDjGSMDrPSG7PHw-24" vertex="1">
          <mxGeometry x="5.5" y="50" width="119" height="60" as="geometry" />
        </mxCell>
        <mxCell id="tw3v8FDjGSMDrPSG7PHw-12" value="IGW" style="sketch=0;outlineConnect=0;fontColor=#232F3E;gradientColor=none;fillColor=#4D27AA;strokeColor=none;dashed=0;verticalLabelPosition=bottom;verticalAlign=top;align=center;html=1;fontSize=12;fontStyle=0;aspect=fixed;pointerEvents=1;shape=mxgraph.aws4.internet_gateway;" parent="tw3v8FDjGSMDrPSG7PHw-4" vertex="1">
          <mxGeometry x="148.75" y="5" width="44.5" height="44.5" as="geometry" />
        </mxCell>
        <mxCell id="tw3v8FDjGSMDrPSG7PHw-18" style="edgeStyle=orthogonalEdgeStyle;rounded=0;orthogonalLoop=1;jettySize=auto;html=1;" parent="tw3v8FDjGSMDrPSG7PHw-4" source="tw3v8FDjGSMDrPSG7PHw-13" target="tw3v8FDjGSMDrPSG7PHw-12" edge="1">
          <mxGeometry relative="1" as="geometry" />
        </mxCell>
        <mxCell id="tw3v8FDjGSMDrPSG7PHw-15" value="WAF" style="sketch=0;points=[[0,0,0],[0.25,0,0],[0.5,0,0],[0.75,0,0],[1,0,0],[0,1,0],[0.25,1,0],[0.5,1,0],[0.75,1,0],[1,1,0],[0,0.25,0],[0,0.5,0],[0,0.75,0],[1,0.25,0],[1,0.5,0],[1,0.75,0]];outlineConnect=0;fontColor=#232F3E;gradientColor=#F54749;gradientDirection=north;fillColor=#C7131F;strokeColor=#ffffff;dashed=0;verticalLabelPosition=bottom;verticalAlign=top;align=center;html=1;fontSize=12;fontStyle=0;aspect=fixed;shape=mxgraph.aws4.resourceIcon;resIcon=mxgraph.aws4.waf;" parent="tw3v8FDjGSMDrPSG7PHw-4" vertex="1">
          <mxGeometry x="241" y="50" width="50" height="50" as="geometry" />
        </mxCell>
        <mxCell id="jS2enx0RO5ZcbMTMXtOT-2" style="edgeStyle=orthogonalEdgeStyle;rounded=0;orthogonalLoop=1;jettySize=auto;html=1;exitX=0.5;exitY=1;exitDx=0;exitDy=0;" edge="1" parent="tw3v8FDjGSMDrPSG7PHw-4" source="tw3v8FDjGSMDrPSG7PHw-20" target="tw3v8FDjGSMDrPSG7PHw-51">
          <mxGeometry relative="1" as="geometry">
            <Array as="points">
              <mxPoint x="91" y="230" />
            </Array>
          </mxGeometry>
        </mxCell>
        <mxCell id="tw3v8FDjGSMDrPSG7PHw-20" value="&lt;font style=&quot;&quot;&gt;&lt;font size=&quot;1&quot;&gt;Worker Node&lt;/font&gt;&lt;br&gt;&lt;font style=&quot;font-size: 9px;&quot;&gt;Web-Server PODs&lt;/font&gt;&lt;/font&gt;" style="points=[[0,0],[0.25,0],[0.5,0],[0.75,0],[1,0],[1,0.25],[1,0.5],[1,0.75],[1,1],[0.75,1],[0.5,1],[0.25,1],[0,1],[0,0.75],[0,0.5],[0,0.25]];outlineConnect=0;gradientColor=none;html=1;whiteSpace=wrap;fontSize=12;fontStyle=0;container=1;pointerEvents=0;collapsible=0;recursiveResize=0;shape=mxgraph.aws4.group;grIcon=mxgraph.aws4.group_ec2_instance_contents;strokeColor=#D86613;fillColor=none;verticalAlign=top;align=left;spacingLeft=30;fontColor=#D86613;dashed=0;" parent="tw3v8FDjGSMDrPSG7PHw-4" vertex="1">
          <mxGeometry x="31" y="140" width="119" height="60" as="geometry" />
        </mxCell>
        <mxCell id="tw3v8FDjGSMDrPSG7PHw-46" style="edgeStyle=orthogonalEdgeStyle;rounded=0;orthogonalLoop=1;jettySize=auto;html=1;entryX=1;entryY=0.5;entryDx=0;entryDy=0;fontSize=9;startArrow=block;startFill=1;" parent="tw3v8FDjGSMDrPSG7PHw-4" source="tw3v8FDjGSMDrPSG7PHw-21" target="tw3v8FDjGSMDrPSG7PHw-28" edge="1">
          <mxGeometry relative="1" as="geometry" />
        </mxCell>
        <mxCell id="tw3v8FDjGSMDrPSG7PHw-47" style="edgeStyle=orthogonalEdgeStyle;rounded=0;orthogonalLoop=1;jettySize=auto;html=1;entryX=0.15;entryY=0.743;entryDx=0;entryDy=0;entryPerimeter=0;fontSize=9;startArrow=block;startFill=1;" parent="tw3v8FDjGSMDrPSG7PHw-4" source="tw3v8FDjGSMDrPSG7PHw-21" target="tw3v8FDjGSMDrPSG7PHw-29" edge="1">
          <mxGeometry relative="1" as="geometry">
            <Array as="points">
              <mxPoint x="321" y="430" />
              <mxPoint x="321" y="370" />
            </Array>
          </mxGeometry>
        </mxCell>
        <mxCell id="tw3v8FDjGSMDrPSG7PHw-21" value="AuroraRDS" style="sketch=0;points=[[0,0,0],[0.25,0,0],[0.5,0,0],[0.75,0,0],[1,0,0],[0,1,0],[0.25,1,0],[0.5,1,0],[0.75,1,0],[1,1,0],[0,0.25,0],[0,0.5,0],[0,0.75,0],[1,0.25,0],[1,0.5,0],[1,0.75,0]];outlineConnect=0;fontColor=#232F3E;gradientColor=#4D72F3;gradientDirection=north;fillColor=#3334B9;strokeColor=#ffffff;dashed=0;verticalLabelPosition=bottom;verticalAlign=top;align=center;html=1;fontSize=12;fontStyle=0;aspect=fixed;shape=mxgraph.aws4.resourceIcon;resIcon=mxgraph.aws4.aurora;" parent="tw3v8FDjGSMDrPSG7PHw-4" vertex="1">
          <mxGeometry x="236" y="400" width="60" height="60" as="geometry" />
        </mxCell>
        <mxCell id="tw3v8FDjGSMDrPSG7PHw-13" value="NAT" style="sketch=0;outlineConnect=0;fontColor=#232F3E;gradientColor=none;fillColor=#4D27AA;strokeColor=none;dashed=0;verticalLabelPosition=bottom;verticalAlign=top;align=center;html=1;fontSize=12;fontStyle=0;aspect=fixed;pointerEvents=1;shape=mxgraph.aws4.nat_gateway;" parent="tw3v8FDjGSMDrPSG7PHw-4" vertex="1">
          <mxGeometry x="151" y="110" width="40" height="40" as="geometry" />
        </mxCell>
        <mxCell id="tw3v8FDjGSMDrPSG7PHw-30" value="Public subnet" style="points=[[0,0],[0.25,0],[0.5,0],[0.75,0],[1,0],[1,0.25],[1,0.5],[1,0.75],[1,1],[0.75,1],[0.5,1],[0.25,1],[0,1],[0,0.75],[0,0.5],[0,0.25]];outlineConnect=0;gradientColor=none;html=1;whiteSpace=wrap;fontSize=12;fontStyle=0;container=1;pointerEvents=0;collapsible=0;recursiveResize=0;shape=mxgraph.aws4.group;grIcon=mxgraph.aws4.group_security_group;grStroke=0;strokeColor=#248814;fillColor=#E9F3E6;verticalAlign=top;align=left;spacingLeft=30;fontColor=#248814;dashed=0;" parent="tw3v8FDjGSMDrPSG7PHw-4" vertex="1">
          <mxGeometry x="342" y="100" width="179" height="124" as="geometry" />
        </mxCell>
        <mxCell id="jS2enx0RO5ZcbMTMXtOT-3" style="edgeStyle=orthogonalEdgeStyle;rounded=0;orthogonalLoop=1;jettySize=auto;html=1;exitX=0.5;exitY=1;exitDx=0;exitDy=0;" edge="1" parent="tw3v8FDjGSMDrPSG7PHw-4" source="tw3v8FDjGSMDrPSG7PHw-36" target="tw3v8FDjGSMDrPSG7PHw-51">
          <mxGeometry relative="1" as="geometry">
            <Array as="points">
              <mxPoint x="411" y="230" />
            </Array>
          </mxGeometry>
        </mxCell>
        <mxCell id="tw3v8FDjGSMDrPSG7PHw-36" value="&lt;font style=&quot;&quot;&gt;&lt;font size=&quot;1&quot;&gt;Worker Node&lt;/font&gt;&lt;br&gt;&lt;font style=&quot;font-size: 9px;&quot;&gt;Web-Server PODs&lt;/font&gt;&lt;/font&gt;" style="points=[[0,0],[0.25,0],[0.5,0],[0.75,0],[1,0],[1,0.25],[1,0.5],[1,0.75],[1,1],[0.75,1],[0.5,1],[0.25,1],[0,1],[0,0.75],[0,0.5],[0,0.25]];outlineConnect=0;gradientColor=none;html=1;whiteSpace=wrap;fontSize=12;fontStyle=0;container=1;pointerEvents=0;collapsible=0;recursiveResize=0;shape=mxgraph.aws4.group;grIcon=mxgraph.aws4.group_ec2_instance_contents;strokeColor=#D86613;fillColor=none;verticalAlign=top;align=left;spacingLeft=30;fontColor=#D86613;dashed=0;" parent="tw3v8FDjGSMDrPSG7PHw-4" vertex="1">
          <mxGeometry x="352" y="140" width="119" height="60" as="geometry" />
        </mxCell>
        <mxCell id="tw3v8FDjGSMDrPSG7PHw-38" style="edgeStyle=orthogonalEdgeStyle;rounded=0;orthogonalLoop=1;jettySize=auto;html=1;fontSize=9;" parent="tw3v8FDjGSMDrPSG7PHw-4" source="tw3v8FDjGSMDrPSG7PHw-37" target="tw3v8FDjGSMDrPSG7PHw-12" edge="1">
          <mxGeometry relative="1" as="geometry">
            <Array as="points">
              <mxPoint x="492" y="30" />
            </Array>
          </mxGeometry>
        </mxCell>
        <mxCell id="tw3v8FDjGSMDrPSG7PHw-37" value="NAT" style="sketch=0;outlineConnect=0;fontColor=#232F3E;gradientColor=none;fillColor=#4D27AA;strokeColor=none;dashed=0;verticalLabelPosition=bottom;verticalAlign=top;align=center;html=1;fontSize=12;fontStyle=0;aspect=fixed;pointerEvents=1;shape=mxgraph.aws4.nat_gateway;" parent="tw3v8FDjGSMDrPSG7PHw-4" vertex="1">
          <mxGeometry x="472" y="110" width="40" height="40" as="geometry" />
        </mxCell>
        <mxCell id="tw3v8FDjGSMDrPSG7PHw-52" value="ALB" style="sketch=0;points=[[0,0,0],[0.25,0,0],[0.5,0,0],[0.75,0,0],[1,0,0],[0,1,0],[0.25,1,0],[0.5,1,0],[0.75,1,0],[1,1,0],[0,0.25,0],[0,0.5,0],[0,0.75,0],[1,0.25,0],[1,0.5,0],[1,0.75,0]];outlineConnect=0;fontColor=#232F3E;gradientColor=#945DF2;gradientDirection=north;fillColor=#5A30B5;strokeColor=#ffffff;dashed=0;verticalLabelPosition=bottom;verticalAlign=top;align=center;html=1;fontSize=12;fontStyle=0;aspect=fixed;shape=mxgraph.aws4.resourceIcon;resIcon=mxgraph.aws4.elastic_load_balancing;" parent="tw3v8FDjGSMDrPSG7PHw-4" vertex="1">
          <mxGeometry x="241" y="130" width="50" height="50" as="geometry" />
        </mxCell>
        <mxCell id="tw3v8FDjGSMDrPSG7PHw-51" value="Cognito" style="sketch=0;points=[[0,0,0],[0.25,0,0],[0.5,0,0],[0.75,0,0],[1,0,0],[0,1,0],[0.25,1,0],[0.5,1,0],[0.75,1,0],[1,1,0],[0,0.25,0],[0,0.5,0],[0,0.75,0],[1,0.25,0],[1,0.5,0],[1,0.75,0]];outlineConnect=0;fontColor=#232F3E;gradientColor=#F54749;gradientDirection=north;fillColor=#C7131F;strokeColor=#ffffff;dashed=0;verticalLabelPosition=bottom;verticalAlign=top;align=center;html=1;fontSize=12;fontStyle=0;aspect=fixed;shape=mxgraph.aws4.resourceIcon;resIcon=mxgraph.aws4.cognito;" parent="tw3v8FDjGSMDrPSG7PHw-4" vertex="1">
          <mxGeometry x="241" y="220" width="50" height="50" as="geometry" />
        </mxCell>
        <mxCell id="tw3v8FDjGSMDrPSG7PHw-45" value="SNS" style="outlineConnect=0;dashed=0;verticalLabelPosition=bottom;verticalAlign=top;align=center;html=1;shape=mxgraph.aws3.sns;fillColor=#D9A741;gradientColor=none;fontSize=9;" parent="tw3v8FDjGSMDrPSG7PHw-4" vertex="1">
          <mxGeometry x="67" y="9.75" width="47" height="35" as="geometry" />
        </mxCell>
        <mxCell id="tw3v8FDjGSMDrPSG7PHw-53" style="edgeStyle=orthogonalEdgeStyle;rounded=0;orthogonalLoop=1;jettySize=auto;html=1;entryX=0.5;entryY=0;entryDx=0;entryDy=0;entryPerimeter=0;fontSize=9;startArrow=none;startFill=0;" parent="tw3v8FDjGSMDrPSG7PHw-3" source="tw3v8FDjGSMDrPSG7PHw-16" target="tw3v8FDjGSMDrPSG7PHw-15" edge="1">
          <mxGeometry relative="1" as="geometry" />
        </mxCell>
        <mxCell id="jS2enx0RO5ZcbMTMXtOT-4" style="edgeStyle=orthogonalEdgeStyle;rounded=0;orthogonalLoop=1;jettySize=auto;html=1;exitX=0.5;exitY=1;exitDx=0;exitDy=0;exitPerimeter=0;entryX=0.5;entryY=0;entryDx=0;entryDy=0;entryPerimeter=0;" edge="1" parent="tw3v8FDjGSMDrPSG7PHw-3" source="tw3v8FDjGSMDrPSG7PHw-1" target="tw3v8FDjGSMDrPSG7PHw-16">
          <mxGeometry relative="1" as="geometry" />
        </mxCell>
        <mxCell id="tw3v8FDjGSMDrPSG7PHw-1" value="" style="sketch=0;points=[[0,0,0],[0.25,0,0],[0.5,0,0],[0.75,0,0],[1,0,0],[0,1,0],[0.25,1,0],[0.5,1,0],[0.75,1,0],[1,1,0],[0,0.25,0],[0,0.5,0],[0,0.75,0],[1,0.25,0],[1,0.5,0],[1,0.75,0]];outlineConnect=0;fontColor=#232F3E;gradientColor=#945DF2;gradientDirection=north;fillColor=#5A30B5;strokeColor=#ffffff;dashed=0;verticalLabelPosition=bottom;verticalAlign=top;align=center;html=1;fontSize=12;fontStyle=0;aspect=fixed;shape=mxgraph.aws4.resourceIcon;resIcon=mxgraph.aws4.route_53;" parent="tw3v8FDjGSMDrPSG7PHw-3" vertex="1">
          <mxGeometry x="270" width="40" height="40" as="geometry" />
        </mxCell>
        <mxCell id="tw3v8FDjGSMDrPSG7PHw-16" value="Shield" style="sketch=0;points=[[0,0,0],[0.25,0,0],[0.5,0,0],[0.75,0,0],[1,0,0],[0,1,0],[0.25,1,0],[0.5,1,0],[0.75,1,0],[1,1,0],[0,0.25,0],[0,0.5,0],[0,0.75,0],[1,0.25,0],[1,0.5,0],[1,0.75,0]];outlineConnect=0;fontColor=#232F3E;gradientColor=#F54749;gradientDirection=north;fillColor=#C7131F;strokeColor=#ffffff;dashed=0;verticalLabelPosition=bottom;verticalAlign=top;align=center;html=1;fontSize=12;fontStyle=0;aspect=fixed;shape=mxgraph.aws4.resourceIcon;resIcon=mxgraph.aws4.shield;" parent="tw3v8FDjGSMDrPSG7PHw-3" vertex="1">
          <mxGeometry x="270" y="60" width="40" height="40" as="geometry" />
        </mxCell>
        <mxCell id="jS2enx0RO5ZcbMTMXtOT-7" value="" style="edgeStyle=orthogonalEdgeStyle;rounded=0;orthogonalLoop=1;jettySize=auto;html=1;entryX=0.5;entryY=0;entryDx=0;entryDy=0;entryPerimeter=0;fontSize=9;startArrow=none;startFill=0;endArrow=none;" edge="1" parent="tw3v8FDjGSMDrPSG7PHw-3" source="tw3v8FDjGSMDrPSG7PHw-1" target="tw3v8FDjGSMDrPSG7PHw-16">
          <mxGeometry relative="1" as="geometry">
            <mxPoint x="425" y="190" as="sourcePoint" />
            <mxPoint x="425" y="310" as="targetPoint" />
          </mxGeometry>
        </mxCell>
        <mxCell id="tw3v8FDjGSMDrPSG7PHw-7" style="edgeStyle=orthogonalEdgeStyle;rounded=0;orthogonalLoop=1;jettySize=auto;html=1;" parent="1" source="tw3v8FDjGSMDrPSG7PHw-5" target="tw3v8FDjGSMDrPSG7PHw-1" edge="1">
          <mxGeometry relative="1" as="geometry" />
        </mxCell>
        <mxCell id="tw3v8FDjGSMDrPSG7PHw-5" value="" style="sketch=0;outlineConnect=0;fontColor=#232F3E;gradientColor=none;fillColor=#232F3D;strokeColor=none;dashed=0;verticalLabelPosition=bottom;verticalAlign=top;align=center;html=1;fontSize=12;fontStyle=0;aspect=fixed;pointerEvents=1;shape=mxgraph.aws4.users;" parent="1" vertex="1">
          <mxGeometry x="390" y="30" width="70" height="70" as="geometry" />
        </mxCell>
        <mxCell id="tw3v8FDjGSMDrPSG7PHw-8" value="notification" style="sketch=0;outlineConnect=0;gradientColor=none;fontColor=#545B64;strokeColor=none;fillColor=#879196;dashed=0;verticalLabelPosition=bottom;verticalAlign=top;align=center;html=1;fontSize=12;fontStyle=0;aspect=fixed;shape=mxgraph.aws4.illustration_notification;pointerEvents=1" parent="1" vertex="1">
          <mxGeometry x="120" y="19" width="100" height="81" as="geometry" />
        </mxCell>
        <mxCell id="tw3v8FDjGSMDrPSG7PHw-50" style="edgeStyle=orthogonalEdgeStyle;rounded=0;orthogonalLoop=1;jettySize=auto;html=1;fontSize=9;startArrow=none;startFill=0;" parent="1" source="tw3v8FDjGSMDrPSG7PHw-45" target="tw3v8FDjGSMDrPSG7PHw-8" edge="1">
          <mxGeometry relative="1" as="geometry">
            <Array as="points">
              <mxPoint x="250" y="60" />
            </Array>
          </mxGeometry>
        </mxCell>
      </root>
    </mxGraphModel>
  </diagram>
</mxfile>
